<svg width="16" height="16" viewBox="0 0 16 16" fill="none" xmlns="http://www.w3.org/2000/svg">
<path d="M5.77977 7.80077C6.29842 8.86111 7.15792 9.7167 8.2206 10.2305C8.29835 10.2674 8.38436 10.2833 8.47015 10.2768C8.55595 10.2703 8.63857 10.2416 8.7099 10.1935L10.2746 9.1501C10.3438 9.10395 10.4234 9.0758 10.5063 9.06819C10.5891 9.06058 10.6725 9.07376 10.749 9.10652L13.6763 10.3611C13.7757 10.4033 13.8588 10.4767 13.9128 10.5703C13.9669 10.6638 13.9892 10.7724 13.9762 10.8796C13.8837 11.6036 13.5304 12.2691 12.9826 12.7514C12.4347 13.2337 11.7299 13.4998 11 13.4998C8.74566 13.4998 6.58365 12.6043 4.98959 11.0102C3.39553 9.41617 2.5 7.25416 2.5 4.99982C2.50004 4.26993 2.76612 3.56507 3.24843 3.01724C3.73073 2.4694 4.39618 2.11615 5.12019 2.02363C5.22745 2.01065 5.33602 2.03288 5.42955 2.08697C5.52307 2.14106 5.59649 2.22408 5.63873 2.32352L6.89439 5.25339C6.92687 5.32917 6.9401 5.41181 6.93291 5.49394C6.92572 5.57608 6.89833 5.65516 6.85318 5.72415L5.81341 7.31288C5.76608 7.38435 5.73811 7.46688 5.73221 7.55239C5.72631 7.6379 5.7427 7.72348 5.77977 7.80077Z" fill="white"/>
</svg>
