<svg width="16" height="16" viewBox="0 0 16 16" fill="none" xmlns="http://www.w3.org/2000/svg">
<path d="M8 1.25C6.60761 1.25 5.27226 1.80312 4.28769 2.78769C3.30312 3.77226 2.75 5.10761 2.75 6.5C2.75 10.75 8 14.75 8 14.75C8 14.75 13.25 10.75 13.25 6.5C13.25 5.10761 12.6969 3.77226 11.7123 2.78769C10.7277 1.80312 9.39239 1.25 8 1.25ZM8 9C7.50555 9 7.0222 8.85338 6.61107 8.57867C6.19995 8.30397 5.87952 7.91352 5.6903 7.45671C5.50108 6.99989 5.45157 6.49723 5.54804 6.01227C5.6445 5.52732 5.8826 5.08186 6.23223 4.73223C6.58186 4.3826 7.02732 4.1445 7.51227 4.04804C7.99723 3.95157 8.49989 4.00108 8.95671 4.1903C9.41352 4.37952 9.80397 4.69995 10.0787 5.11107C10.3534 5.5222 10.5 6.00555 10.5 6.5C10.5 7.16304 10.2366 7.79893 9.76777 8.26777C9.29893 8.73661 8.66304 9 8 9Z" fill="white"/>
</svg>
