<svg width="32" height="32" viewBox="0 0 32 32" fill="none" xmlns="http://www.w3.org/2000/svg">
<path d="M32 16C32 7.16344 24.8366 0 16 0C7.16344 0 0 7.16344 0 16C0 24.8366 7.16344 32 16 32C24.8366 32 32 24.8366 32 16Z" fill="white"/>
<path d="M31.75 16C31.75 24.6985 24.6985 31.75 16 31.75C7.30152 31.75 0.25 24.6985 0.25 16C0.25 7.30152 7.30152 0.25 16 0.25C24.6985 0.25 31.75 7.30152 31.75 16Z" stroke="black" stroke-opacity="0.16" stroke-width="0.5"/>
<path fill-rule="evenodd" clip-rule="evenodd" d="M23.8285 16.1818C23.8285 15.6145 23.7775 15.069 23.683 14.5454H16.1484V17.64H20.4539C20.2684 18.64 19.7048 19.4872 18.8575 20.0545V22.0618H21.443C22.9557 20.6691 23.8285 18.6181 23.8285 16.1818Z" fill="#4285F4"/>
<path fill-rule="evenodd" clip-rule="evenodd" d="M16.1491 24C18.3091 24 20.12 23.2837 21.4437 22.0618L18.8582 20.0546C18.1418 20.5346 17.2255 20.8182 16.1491 20.8182C14.0655 20.8182 12.3018 19.4109 11.6727 17.52H9V19.5928C10.3164 22.2073 13.0218 24 16.1491 24Z" fill="#34A853"/>
<path fill-rule="evenodd" clip-rule="evenodd" d="M11.6721 17.52C11.5121 17.04 11.4212 16.5272 11.4212 16C11.4212 15.4727 11.5121 14.96 11.6721 14.48V12.4072H8.99935C8.45753 13.4872 8.14844 14.709 8.14844 16C8.14844 17.2909 8.45753 18.5127 8.99935 19.5927L11.6721 17.52Z" fill="#FBBC05"/>
<path fill-rule="evenodd" clip-rule="evenodd" d="M16.1491 11.1818C17.3237 11.1818 18.3782 11.5855 19.2073 12.3782L21.5018 10.0836C20.1164 8.79273 18.3055 8 16.1491 8C13.0218 8 10.3164 9.79273 9 12.4073L11.6727 14.48C12.3018 12.5891 14.0655 11.1818 16.1491 11.1818Z" fill="#EA4335"/>
</svg>
