<svg width="24" height="24" viewBox="0 0 24 24" fill="none" xmlns="http://www.w3.org/2000/svg">
<path d="M12 1.875C9.91142 1.875 7.90838 2.70469 6.43153 4.18153C4.95468 5.65838 4.125 7.66142 4.125 9.75C4.125 16.125 12 22.125 12 22.125C12 22.125 19.875 16.125 19.875 9.75C19.875 7.66142 19.0453 5.65838 17.5685 4.18153C16.0916 2.70469 14.0886 1.875 12 1.875ZM12 13.5C11.2583 13.5 10.5333 13.2801 9.91661 12.868C9.29993 12.456 8.81928 11.8703 8.53545 11.1851C8.25162 10.4998 8.17736 9.74584 8.32205 9.01841C8.46675 8.29098 8.8239 7.6228 9.34835 7.09835C9.8728 6.5739 10.541 6.21675 11.2684 6.07205C11.9958 5.92736 12.7498 6.00162 13.4351 6.28545C14.1203 6.56928 14.706 7.04993 15.118 7.66661C15.5301 8.2833 15.75 9.00832 15.75 9.75C15.75 10.7446 15.3549 11.6984 14.6517 12.4017C13.9484 13.1049 12.9946 13.5 12 13.5Z" fill="#163F5E"/>
</svg>
