<svg width="17" height="17" viewBox="0 0 17 17" fill="none" xmlns="http://www.w3.org/2000/svg">
<path d="M3.3393 11.5622C2.59384 10.3056 2.33277 8.82 2.60512 7.38447C2.87747 5.94894 3.6645 4.66221 4.81843 3.7659C5.97235 2.86958 7.41379 2.42534 8.87208 2.5166C10.3304 2.60785 11.7052 3.22833 12.7384 4.2615C13.7715 5.29468 14.392 6.66949 14.4833 8.12777C14.5745 9.58606 14.1303 11.0275 13.234 12.1814C12.3377 13.3354 11.051 14.1224 9.61543 14.3947C8.17991 14.6671 6.69433 14.406 5.43766 13.6606L5.43767 13.6605L3.36539 14.2526C3.27965 14.2771 3.18892 14.2782 3.1026 14.2559C3.01629 14.2335 2.93752 14.1885 2.87447 14.1254C2.81142 14.0624 2.76637 13.9836 2.74401 13.8973C2.72164 13.811 2.72276 13.7202 2.74726 13.6345L3.33934 11.5622L3.3393 11.5622Z" stroke="white" stroke-linecap="round" stroke-linejoin="round"/>
<path d="M8.5 9.25C8.91421 9.25 9.25 8.91421 9.25 8.5C9.25 8.08579 8.91421 7.75 8.5 7.75C8.08579 7.75 7.75 8.08579 7.75 8.5C7.75 8.91421 8.08579 9.25 8.5 9.25Z" fill="white"/>
<path d="M5.5 9.25C5.91421 9.25 6.25 8.91421 6.25 8.5C6.25 8.08579 5.91421 7.75 5.5 7.75C5.08579 7.75 4.75 8.08579 4.75 8.5C4.75 8.91421 5.08579 9.25 5.5 9.25Z" fill="white"/>
<path d="M11.5 9.25C11.9142 9.25 12.25 8.91421 12.25 8.5C12.25 8.08579 11.9142 7.75 11.5 7.75C11.0858 7.75 10.75 8.08579 10.75 8.5C10.75 8.91421 11.0858 9.25 11.5 9.25Z" fill="white"/>
</svg>
