<svg width="32" height="32" viewBox="0 0 32 32" fill="none" xmlns="http://www.w3.org/2000/svg">
<path d="M27.7881 6.14519C27.1071 5.46387 26.2985 4.92339 25.4086 4.55464C24.5187 4.18589 23.5648 3.99609 22.6015 3.99609C21.6381 3.99609 20.6843 4.18589 19.7943 4.55464C18.9044 4.92339 18.0958 5.46387 17.4148 6.14519L16.0015 7.55853L14.5881 6.14519C13.2125 4.76961 11.3468 3.99681 9.40146 3.99681C7.45608 3.99681 5.59038 4.76961 4.21479 6.14519C2.8392 7.52078 2.06641 9.38648 2.06641 11.3319C2.06641 13.2772 2.8392 15.1429 4.21479 16.5185L5.62813 17.9319L16.0015 28.3052L26.3748 17.9319L27.7881 16.5185C28.4695 15.8375 29.0099 15.0289 29.3787 14.139C29.7474 13.2491 29.9372 12.2952 29.9372 11.3319C29.9372 10.3685 29.7474 9.41467 29.3787 8.52472C29.0099 7.63478 28.4695 6.8262 27.7881 6.14519V6.14519Z" stroke="#163F5E" stroke-width="1.5" stroke-linecap="round" stroke-linejoin="round"/>
</svg>
