<svg width="24" height="24" viewBox="0 0 24 24" fill="none" xmlns="http://www.w3.org/2000/svg">
<path d="M10.7035 3.74857L2.4557 17.9978C2.32372 18.2258 2.25412 18.4846 2.25391 18.748C2.25369 19.0115 2.32286 19.2703 2.45446 19.4986C2.58605 19.7268 2.77544 19.9163 3.00355 20.0481C3.23167 20.1799 3.49047 20.2493 3.75391 20.2493H20.2495C20.5129 20.2493 20.7717 20.1799 20.9998 20.0481C21.2279 19.9163 21.4173 19.7268 21.5489 19.4986C21.6805 19.2703 21.7497 19.0115 21.7495 18.748C21.7492 18.4846 21.6796 18.2258 21.5477 17.9978L13.2999 3.74857C13.1681 3.52093 12.9788 3.33193 12.751 3.20055C12.5231 3.06916 12.2647 3 12.0017 3C11.7387 3 11.4803 3.06916 11.2524 3.20055C11.0245 3.33193 10.8352 3.52093 10.7035 3.74857V3.74857Z" fill="#E41A28" stroke="#E41A28" stroke-width="2" stroke-linecap="round" stroke-linejoin="round"/>
<path d="M12 9.75V13.5" stroke="white" stroke-width="2" stroke-linecap="round" stroke-linejoin="round"/>
<path d="M12 18C12.6213 18 13.125 17.4963 13.125 16.875C13.125 16.2537 12.6213 15.75 12 15.75C11.3787 15.75 10.875 16.2537 10.875 16.875C10.875 17.4963 11.3787 18 12 18Z" fill="white"/>
</svg>
