<svg width="16" height="16" viewBox="0 0 16 16" fill="none" xmlns="http://www.w3.org/2000/svg">
<path d="M11.5 11.5H4.36364L2.6201 1.91056C2.59915 1.79535 2.53844 1.69115 2.44854 1.61612C2.35864 1.5411 2.24526 1.5 2.12817 1.5H1" stroke="#163F5E" stroke-linecap="round" stroke-linejoin="round"/>
<path d="M5 14C5.69036 14 6.25 13.4404 6.25 12.75C6.25 12.0596 5.69036 11.5 5 11.5C4.30964 11.5 3.75 12.0596 3.75 12.75C3.75 13.4404 4.30964 14 5 14Z" stroke="#163F5E" stroke-linecap="round" stroke-linejoin="round"/>
<path d="M11.5 14C12.1904 14 12.75 13.4404 12.75 12.75C12.75 12.0596 12.1904 11.5 11.5 11.5C10.8096 11.5 10.25 12.0596 10.25 12.75C10.25 13.4404 10.8096 14 11.5 14Z" stroke="#163F5E" stroke-linecap="round" stroke-linejoin="round"/>
<path d="M3.90909 9H11.7563C11.9905 9 12.2173 8.91781 12.3971 8.76775C12.5769 8.6177 12.6983 8.4093 12.7402 8.17889L13.5 4H3" stroke="#163F5E" stroke-linecap="round" stroke-linejoin="round"/>
</svg>
